<?xml version="1.0" encoding="UTF-8" standalone="no"?>
<!-- Created with Inkscape (http://www.inkscape.org/) -->

<svg
   xmlns:dc="http://purl.org/dc/elements/1.1/"
   xmlns:cc="http://creativecommons.org/ns#"
   xmlns:rdf="http://www.w3.org/1999/02/22-rdf-syntax-ns#"
   xmlns:svg="http://www.w3.org/2000/svg"
   xmlns="http://www.w3.org/2000/svg"
   xmlns:sodipodi="http://sodipodi.sourceforge.net/DTD/sodipodi-0.dtd"
   xmlns:inkscape="http://www.inkscape.org/namespaces/inkscape"
   width="250px"
   height="350px"
   viewBox="0 0 250 350"
   version="1.1"
   id="SVGRoot"
   inkscape:version="0.92.4 (5da689c313, 2019-01-14)"
   sodipodi:docname="baackground_mountains.svg"
   inkscape:export-filename="F:\Documents\BME\Prog1\my-awesome-project\cmake-build-debug\Textures\thumbnails\mountains_small.png"
   inkscape:export-xdpi="54.857143"
   inkscape:export-ydpi="54.857143">
  <defs
     id="defs853" />
  <sodipodi:namedview
     id="base"
     pagecolor="#ffffff"
     bordercolor="#666666"
     borderopacity="1.0"
     inkscape:pageopacity="0.0"
     inkscape:pageshadow="2"
     inkscape:zoom="1.979899"
     inkscape:cx="0.93243628"
     inkscape:cy="155.31188"
     inkscape:document-units="px"
     inkscape:current-layer="layer1"
     showgrid="false"
     inkscape:window-width="1920"
     inkscape:window-height="1017"
     inkscape:window-x="-8"
     inkscape:window-y="-8"
     inkscape:window-maximized="1" />
  <metadata
     id="metadata856">
    <rdf:RDF>
      <cc:Work
         rdf:about="">
        <dc:format>image/svg+xml</dc:format>
        <dc:type
           rdf:resource="http://purl.org/dc/dcmitype/StillImage" />
        <dc:title />
      </cc:Work>
    </rdf:RDF>
  </metadata>
  <g
     inkscape:label="Layer 1"
     inkscape:groupmode="layer"
     id="layer1">
    <g
       id="g5470">
      <rect
         y="-1.3351441e-05"
         x="0"
         height="350"
         width="250"
         id="rect1452"
         style="fill:#e1eef6;fill-rule:evenodd;stroke-width:16.99177933;fill-opacity:1" />
      <path
         id="rect1447"
         d="M 183.92773 106.42773 L 180.35742 110.35742 L 176.07227 108.21484 L 172.5 111.78516 L 165.35742 112.85742 L 161.42773 108.92773 L 153.92773 107.5 L 148.57227 114.28516 L 144.64258 124.28516 L 140.35742 131.42773 L 131.42773 138.92773 L 108.21484 134.28516 L 99.642578 137.85742 L 91.072266 135.35742 L 76.785156 135.71484 L 69.285156 133.57227 L 57.142578 134.64258 L 46.785156 131.07227 L 33.214844 127.14258 L 28.927734 122.5 L 25.357422 125.71484 L 23.927734 133.21484 L 15.714844 143.21484 L 11.785156 143.21484 L 8.9277344 146.42773 L 0 149.29883 L 0 350 L 250 350 L 250 146.31641 L 247.5 149.28516 L 239.28516 147.14258 L 232.5 143.57227 L 225.35742 135.35742 L 221.07227 131.07227 L 213.92773 130.35742 L 210 123.92773 L 199.28516 117.85742 L 191.42773 115.35742 L 187.5 109.64258 L 183.92773 106.42773 z "
         style="fill:#94a2b6;fill-rule:evenodd;stroke-width:12.42998409;fill-opacity:1" />
      <path
         id="rect1442"
         d="M 97.142578 150.35742 L 87.142578 150.71484 L 75.357422 153.57227 L 69.642578 157.85742 L 58.572266 161.42773 L 47.142578 163.21484 L 42.142578 160.71484 L 38.214844 160.71484 L 31.785156 167.14258 L 30 171.78516 L 21.785156 178.21484 L 0 184.58203 L 0 350 L 250 350 L 250 182.82031 L 243.57227 172.85742 L 234.28516 175.35742 L 225.35742 174.64258 L 221.78516 177.14258 L 216.78516 173.92773 L 205.71484 172.85742 L 196.07227 181.42773 L 190 186.07227 L 186.42773 190.35742 L 183.92773 191.78516 L 174.64258 190 L 164.64258 183.92773 L 153.57227 170.71484 L 147.14258 168.57227 L 128.92773 171.07227 L 117.14258 169.28516 L 113.57227 161.07227 L 102.14258 154.28516 L 97.142578 150.35742 z "
         style="fill:#45638e;fill-rule:evenodd;stroke-width:20.70627785;fill-opacity:1" />
      <path
         id="rect1432"
         d="M 218.92773 192.5 L 213.92773 193.92773 L 212.14258 199.64258 L 203.92773 205.71484 L 200.71484 216.42773 L 187.14258 220 L 176.42773 210.35742 L 169.64258 212.5 L 158.57227 207.14258 L 154.28516 200.71484 L 147.14258 201.07227 L 136.07227 205.71484 L 130.71484 201.42773 L 121.07227 202.5 L 112.85742 198.57227 L 106.07227 203.21484 L 95.714844 199.28516 L 90 195 L 78.214844 198.21484 L 73.572266 196.07227 L 64.285156 196.07227 L 61.072266 201.78516 L 54.642578 206.78516 L 44.642578 208.92773 L 39.285156 207.85742 L 37.5 210.35742 L 28.214844 208.92773 L 20.357422 206.78516 L 0 216.28516 L 0 350 L 250 350 L 250 218.57227 L 248.57227 218.57227 L 243.57227 213.92773 L 232.14258 210 L 225.71484 204.64258 L 218.92773 192.5 z "
         style="fill:#5d79a7;fill-rule:evenodd;stroke-width:12.45103455;fill-opacity:1" />
      <path
         sodipodi:nodetypes="ccccccccccccccccccccccccccccccccc"
         inkscape:connector-curvature="0"
         id="rect872"
         d="m 241.1859,225 -6.73664,1.35001 -8.53462,13.93846 -4.93864,-3.59614 -5.39009,4.04614 -7.63563,-5.39615 -7.18613,2.69807 -6.28713,10.79037 -2.69505,7.64424 -10.56631,2.14662 -15.03563,9.09571 -6.28713,-7.19423 h -10.78017 l -5.92055,-5.77433 -8.89927,-0.52184 -10.94405,-16.47247 -13.13628,-2.69808 -12.821076,2.08401 -10.595906,-2.91024 -10.717636,5.88502 -8.440544,-1.46992 -6.095606,5.45346 -11.236933,5.18206 L 40.871248,237.14039 29.643527,238.4904 21.39451,236.93746 8.9841307,242.98655 0,259.62309 v 89.92886 L 250,350 V 235.32079 l -3.42402,-0.42848 z"
         style="fill:#133254;fill-opacity:1;fill-rule:evenodd;stroke-width:9.72681618" />
      <rect
         y="320"
         x="0"
         height="30"
         width="250"
         id="rect1454"
         style="fill:#2a2a3a;fill-opacity:1;fill-rule:evenodd;stroke-width:0.67772448" />
    </g>
  </g>
</svg>
