<?xml version="1.0" encoding="UTF-8" standalone="no"?>
<!-- Created with Inkscape (http://www.inkscape.org/) -->

<svg
   xmlns:dc="http://purl.org/dc/elements/1.1/"
   xmlns:cc="http://creativecommons.org/ns#"
   xmlns:rdf="http://www.w3.org/1999/02/22-rdf-syntax-ns#"
   xmlns:svg="http://www.w3.org/2000/svg"
   xmlns="http://www.w3.org/2000/svg"
   xmlns:sodipodi="http://sodipodi.sourceforge.net/DTD/sodipodi-0.dtd"
   xmlns:inkscape="http://www.inkscape.org/namespaces/inkscape"
   width="600px"
   height="900px"
   viewBox="0 0 600 900"
   version="1.1"
   id="SVGRoot"
   inkscape:version="0.92.4 (5da689c313, 2019-01-14)"
   sodipodi:docname="background_mountain.svg"
   inkscape:export-filename="F:\Documents\BME\Prog1\my-awesome-project\cmake-build-debug\Textures\background_mountain.png"
   inkscape:export-xdpi="96"
   inkscape:export-ydpi="96">
  <defs
     id="defs3803" />
  <sodipodi:namedview
     id="base"
     pagecolor="#ffffff"
     bordercolor="#666666"
     borderopacity="1.0"
     inkscape:pageopacity="0.0"
     inkscape:pageshadow="2"
     inkscape:zoom="0.98994949"
     inkscape:cx="6.0147009"
     inkscape:cy="258.29458"
     inkscape:document-units="px"
     inkscape:current-layer="layer1"
     showgrid="false"
     inkscape:window-width="1920"
     inkscape:window-height="1017"
     inkscape:window-x="-8"
     inkscape:window-y="-8"
     inkscape:window-maximized="1" />
  <metadata
     id="metadata3806">
    <rdf:RDF>
      <cc:Work
         rdf:about="">
        <dc:format>image/svg+xml</dc:format>
        <dc:type
           rdf:resource="http://purl.org/dc/dcmitype/StillImage" />
        <dc:title />
      </cc:Work>
    </rdf:RDF>
  </metadata>
  <g
     inkscape:label="Layer 1"
     inkscape:groupmode="layer"
     id="layer1">
    <rect
       style="fill:#cccccc;fill-rule:evenodd;stroke-width:4.76593876"
       id="rect3822"
       width="600.42902"
       height="900.42902"
       x="4.5322663e-06"
       y="-0.42901787"
       ry="0" />
    <path
       style="display:none;fill:none;stroke:#000000;stroke-width:1px;stroke-linecap:butt;stroke-linejoin:miter;stroke-opacity:1"
       d="M 0.0505024,725.62305 231.42857,125.71429 485.71429,807.14286 Z"
       id="path3860"
       inkscape:connector-curvature="0" />
    <path
       style="fill:#b3b3b3;stroke-width:1.42857146"
       d="M 4.3389318,716.69448 C 34.18791,638.09525 230.84083,129.90876 231.4074,129.90876 c 0.74935,0 219.26313,584.45669 221.00702,591.12533 l 0.82645,3.16039 H 227.3658 1.4907188 Z"
       id="path3862"
       inkscape:connector-curvature="0" />
    <path
       style="fill:#808080;stroke-width:1.42857146"
       d="m 229.20217,719.55162 c 2.43284,-4.01503 61.38066,-105.54903 163.8043,-282.14286 15.6081,-26.91071 28.75313,-48.91442 29.2112,-48.89712 0.83725,0.0316 168.68998,333.18112 168.68998,334.81125 0,0.47937 -82.01672,0.87159 -182.25938,0.87159 H 226.3889 Z"
       id="path4693"
       inkscape:connector-curvature="0" />
    <path
       style="fill:#f2f2f2;stroke-width:1.44602919"
       d="M 0.0505024,810.62305 V 721.33734 H 300.0505 h 300 v 89.28571 89.28571 h -300 H 0.0505024 Z"
       id="path3826"
       inkscape:connector-curvature="0" />
    <path
       style="fill:#ffffff;stroke-width:0.35714287"
       d="m 186.92103,244.56848 c 0,-0.41863 42.31868,-109.23475 44.02007,-113.19098 l 0.51206,-1.1907 2.7801,7.26213 c 3.24409,8.47415 7.81562,20.56777 17.32559,45.83356 14.95999,39.74521 22.46899,59.68826 22.82665,60.625 l 0.375,0.98215 h -43.91974 c -25.7606,0 -43.91973,-0.13279 -43.91973,-0.32116 z"
       id="path4721"
       inkscape:connector-curvature="0" />
    <path
       style="fill:#ffffff;stroke-width:0.25253814"
       d="m 379.70624,460.35428 c 0.37578,-0.71088 12.16877,-21.03273 19.23479,-33.14563 12.49757,-21.42395 22.78879,-38.51207 23.19368,-38.51207 0.35403,0 3.93872,6.89614 18.90319,36.36549 4.47872,8.8199 10.41042,20.49663 13.18156,25.94829 l 5.03843,9.91213 h -39.926 -39.92601 z"
       id="path4729"
       inkscape:connector-curvature="0" />
    <rect
       style="fill:#1d1d2e;fill-rule:evenodd;stroke-width:3.52766848;fill-opacity:1"
       id="rect1478"
       width="600"
       height="80"
       x="0"
       y="820" />
    <path
       style="fill:#2a2a3a;fill-opacity:1;stroke:#f2f2f2;stroke-width:1.01015258"
       d="M 0.86292291,859.89837 V 820.50242 H 300.37315 599.88338 v 39.39595 39.39595 H 300.37315 0.86292291 Z"
       id="path1480"
       inkscape:connector-curvature="0" />
    <path
       style="fill:#868686;fill-opacity:1;stroke:#f2f2f2;stroke-width:1.01015258"
       d="m 1.8730755,859.89837 v -38.3858 H 300.37315 598.87323 v 38.3858 38.3858 H 300.37315 1.8730755 Z"
       id="path1482"
       inkscape:connector-curvature="0" />
  </g>
</svg>
