<?xml version="1.0" encoding="UTF-8" standalone="no"?>
<!-- Created with Inkscape (http://www.inkscape.org/) -->

<svg
   xmlns:dc="http://purl.org/dc/elements/1.1/"
   xmlns:cc="http://creativecommons.org/ns#"
   xmlns:rdf="http://www.w3.org/1999/02/22-rdf-syntax-ns#"
   xmlns:svg="http://www.w3.org/2000/svg"
   xmlns="http://www.w3.org/2000/svg"
   xmlns:sodipodi="http://sodipodi.sourceforge.net/DTD/sodipodi-0.dtd"
   xmlns:inkscape="http://www.inkscape.org/namespaces/inkscape"
   width="900px"
   height="600px"
   viewBox="0 0 900 600"
   version="1.1"
   id="SVGRoot"
   inkscape:version="0.92.4 (5da689c313, 2019-01-14)"
   sodipodi:docname="drawing_blank.svg"
   inkscape:export-filename="C:\Users\Tomi\Desktop\background.png"
   inkscape:export-xdpi="88.320511"
   inkscape:export-ydpi="88.320511">
  <defs
     id="defs3729" />
  <sodipodi:namedview
     id="base"
     pagecolor="#ffffff"
     bordercolor="#666666"
     borderopacity="1.0"
     inkscape:pageopacity="0.0"
     inkscape:pageshadow="2"
     inkscape:zoom="0.9899495"
     inkscape:cx="365.41153"
     inkscape:cy="267.74118"
     inkscape:document-units="px"
     inkscape:current-layer="layer1"
     showgrid="false"
     inkscape:window-width="1920"
     inkscape:window-height="1017"
     inkscape:window-x="-8"
     inkscape:window-y="-8"
     inkscape:window-maximized="1" />
  <metadata
     id="metadata3732">
    <rdf:RDF>
      <cc:Work
         rdf:about="">
        <dc:format>image/svg+xml</dc:format>
        <dc:type
           rdf:resource="http://purl.org/dc/dcmitype/StillImage" />
        <dc:title></dc:title>
      </cc:Work>
    </rdf:RDF>
  </metadata>
  <g
     inkscape:label="Layer 1"
     inkscape:groupmode="layer"
     id="layer1">
    <path
       id="path3742"
       style="fill:#1d8cd1;fill-opacity:1"
       d="m 40,324.7168 a 70.710678,42.426407 0 0 0 -41.1894531,8.02734 c 0.28658768,0.61119 0.25125576,0.70257 0.30468748,1.96484 -0.14880798,1.0178 -0.15995268,2.02422 -0.12695318,3.04688 0.0172664,1.21574 -1.38e-5,2.43062 0,3.64648 0.00272,0.99953 0.00244,2.00046 0.00195,3 -2.67e-4,1.0201 0,2.0385 0,3.0586 -4.75e-5,1.01032 -7.8e-6,2.02093 0,3.03125 3e-6,0.73537 1.1e-6,1.47166 0,2.20703 0.2411176,0.40145 0.46713806,0.80086 0.5019531,0.9082 0.2812491,0.86705 0.0838876,1.84072 -0.0136719,2.71875 -0.0365824,0.91398 0.0229036,1.82919 0.0234375,2.74414 -0.0120035,1.0111 -0.00979,2.02206 -0.007812,3.03321 0.001068,1.01184 -1.4e-7,2.02526 0,3.0371 1.8966e-4,1.01014 3.084e-5,2.01916 0,3.0293 -1.655e-5,1.01012 10e-9,2.02112 0,3.03125 -2.94e-6,1.01015 -4.7e-7,2.01915 0,3.0293 v 3.03125 3.0293 3.03125 3.03125 3.02929 3.03125 1.92578 c 0.86427601,1.34221 0.54038852,2.81932 0.46875001,4.29297 0.03164766,0.96417 0.04841097,1.92785 0.04101562,2.89258 -0.00173126,0.16994 9.3521e-4,0.33984 0,0.50977 A 70.710678,42.426407 0 0 0 40,409.56836 70.710678,42.426407 0 0 0 110.71094,367.14258 70.710678,42.426407 0 0 0 40,324.7168 Z m -46.0605469,46.49609 v 0.99805 0.39844 c 0.052779,-0.0968 0.1026881,-0.19454 0.15625,-0.29102 -0.00805,0.006 -0.011135,0.016 -0.021484,0.0195 -0.049989,0.0171 -0.1033733,-0.68096 -0.1347657,-1.125 z m 0.4238281,0.61328 c -0.049347,0.0565 -0.1019084,0.11023 -0.1445312,0.17188 -0.034975,0.0506 -0.041691,0.12618 -0.054687,0.19336 0.067191,-0.12137 0.1341282,-0.24293 0.1992187,-0.36524 z m -5.9648432,20.39063 c -0.0064,-0.0245 -0.180297,0.14766 -0.363282,0.33203 -0.0028,0.0437 -0.0049,0.089 -0.0078,0.13281 0.128361,-0.12822 0.248225,-0.26257 0.34375,-0.41211 0.01968,-0.0308 0.02883,-0.047 0.02734,-0.0527 z" />
    <ellipse
       id="path3742-0"
       cx="135"
       cy="341.42856"
       rx="75.710678"
       ry="50.997837"
       style="fill:#1d77d1;fill-opacity:1;stroke-width:1.13447213" />
    <ellipse
       id="path3742-7"
       cx="237.85715"
       cy="322.17834"
       rx="92.853539"
       ry="80.248047"
       style="fill:#0078ff;fill-opacity:1;stroke-width:1.57599866" />
    <ellipse
       id="path3742-7-1"
       cx="378.57147"
       cy="403.57141"
       rx="86.424965"
       ry="81.71212"
       style="fill:#1d8cd1;fill-opacity:1;stroke-width:1.53427148" />
    <path
       id="path3742-7-4"
       style="fill:#1d48d1;fill-opacity:1;stroke-width:2.2761786"
       d="M 173.57227,347.57422 A 188.56783,82.426407 0 0 0 -0.0078125,398.2207 c -0.00991392,0.13754 -0.02260836,0.27453 -0.02929687,0.41211 0.03164766,0.96417 0.04841097,1.92785 0.04101562,2.89258 C -0.00630884,402.52812 -9.81629e-4,403.53044 0,404.5332 c -2.2515436e-4,1.01087 -1.2343515e-4,2.02234 0,3.03321 1.6101224e-4,1.01027 1.541488e-5,2.01902 0,3.02929 3.5797529e-6,1.01014 1.9266825e-6,2.02111 0,3.03125 -0.03878765,-0.0819 -0.04410497,-0.0163 -0.03710937,0.10547 0.23331683,0.35867 0.46037595,0.74765 0.53906249,0.99024 0.13474097,0.4154 0.085708,0.86817 0.12890626,1.30273 -0.16442888,1.02451 -0.16021977,2.04491 -0.12695313,3.07617 0.0193955,1.03785 -4.007e-5,2.07532 0,3.11328 0.002934,1.19937 0.002621,2.39829 0.001953,3.59766 -2.5758e-4,0.99126 -2e-8,1.98336 0,2.97461 -4.743e-5,1.0072 -7.68e-6,2.01428 0,3.02148 4.14e-6,1.01044 0,2.0208 0,3.03125 v 3.03125 3.0293 3.03125 3.0293 3.03125 3.03125 3.02929 l -0.51953126,1.63477 c -0.08417937,0.16836 -0.18699431,0.32992 -0.25390624,0.50586 -0.0218208,0.0574 0.0905549,-0.15465 0.140625,-0.11914 0.05349255,0.0379 0.03499084,0.12659 0.04492187,0.1914 0.02569352,0.16771 0.04145516,0.33556 0.0625,0.50391 0.11650261,1.24588 0.08761419,2.1506 -0.22851563,3.16211 A 188.56783,82.426407 0 0 0 173.57227,512.42578 188.56783,82.426407 0 0 0 362.13867,430 188.56783,82.426407 0 0 0 173.57227,347.57422 Z m -186.312504,93.18555 c -0.0735,0.093 -0.149161,0.25953 -0.220704,0.41015 a 188.56783,82.426407 0 0 0 0.0098,0.0274 c 0.07003,-0.14268 0.14052,-0.28513 0.210938,-0.42774 8.4e-5,-0.003 -8.9e-5,-0.006 0,-0.01 z m 7.7578121,15.49414 a 188.56783,82.426407 0 0 0 0.046875,0.0605 c 0.012562,0.007 0.024451,0.0148 0.037109,0.0215 0.00306,-0.0111 0.00682,-0.0222 0.00977,-0.0332 -0.029149,-0.0152 -0.07043,-0.0371 -0.09375,-0.0488 z" />
    <ellipse
       id="path3742-7-9"
       cx="733.57141"
       cy="332.14288"
       rx="75.710678"
       ry="67.426407"
       style="fill:#1d8cd1;fill-opacity:1;stroke-width:1.30446649" />
    <ellipse
       id="path3742-7-2"
       cx="622.14288"
       cy="421.42859"
       rx="107.13925"
       ry="85.283546"
       style="fill:#1d73d1;fill-opacity:1;stroke-width:1.74520445" />
    <ellipse
       id="path3742-7-0"
       cx="481.42856"
       cy="442.14285"
       rx="54.996391"
       ry="48.85498"
       style="fill:#1d52d1;fill-opacity:1;stroke-width:0.94636983" />
    <path
       id="path3742-7-27"
       style="fill:#1d67d1;fill-opacity:1;stroke-width:1.44777107"
       d="m 859.28516,280.43164 a 88.567818,70.997833 0 0 0 -88.56641,70.99609 88.567818,70.997833 0 0 0 88.56641,70.99805 88.567818,70.997833 0 0 0 45,-9.9414 V 408.57227 400 v -8.57227 -8.57031 -8.57226 c 0.31984,-1.92448 -0.42729,-5.3816 0,-7.14258 0.38126,-1.57126 0.97929,-3.08206 1.46875,-4.62305 0.2381,-0.47619 0.52558,-0.93011 0.71484,-1.42773 0.0617,-0.16228 -0.25682,0.43637 -0.39844,0.33593 -0.1513,-0.1073 -0.0949,-0.35766 -0.12304,-0.54101 -0.20764,-1.35533 -0.20761,-1.85287 -0.3086,-3.29883 -0.001,-2.98822 0.10994,-5.97194 0.0859,-8.96094 -0.0294,-2.87799 -0.012,-5.75669 -0.01,-8.63476 -6.5e-4,-2.8551 -0.002,-5.70935 -0.002,-8.56446 4.6e-4,-2.85682 5e-5,-5.71349 0,-8.57031 10e-6,-2.85717 0,-5.71509 0,-8.57226 -10e-6,-2.85715 0,-5.71317 0,-8.57032 v -1.3164 c -0.76301,-1.46477 -1.39749,-2.97648 0,-0.89258 v -1.83398 c -0.9774,-1.01336 -1.96778,-2.01765 -2.85547,-3.09961 -0.0755,-0.092 0,-0.23839 0,-0.35743 v -1.78711 -6.61914 a 88.567818,70.997833 0 0 0 -43.57226,-9.37695 z m 47.58984,14.75391 c -0.0782,-0.0215 -0.14467,-0.009 -0.21289,0.002 0.11325,0.0566 0.28496,0.10178 0.49414,0.13867 -0.0975,-0.06 -0.19498,-0.11691 -0.28125,-0.14062 z" />
    <path
       id="path3742-7-7"
       style="fill:#1d55d1;fill-opacity:1;stroke-width:1.94831288"
       d="m 803.57227,353.28711 a 127.13924,89.569267 0 0 0 -127.14063,89.57031 127.13924,89.569267 0 0 0 127.14063,89.56836 127.13924,89.569267 0 0 0 99.96289,-34.41016 c 0.027,-0.1022 0.0496,-0.21024 0.0781,-0.31054 -1.36744,-3.6306 -4.07833,-9.50268 -3.25586,-12.70508 0.27805,-1.0826 0.71506,-2.1176 1.22461,-3.12109 -0.15191,-0.20703 0.0307,-0.68408 0.004,-0.98829 -0.0503,-0.57004 -0.22274,-1.14741 -0.13477,-1.71289 0.65588,-4.21637 1.15953,-5.59911 2.83399,-7.40039 -0.002,-1.06773 1.3e-4,-2.13546 0,-3.20312 0.002,-2.85807 10e-4,-5.71615 0,-8.57422 -2e-4,-2.85746 0,-5.71481 0,-8.57227 -2e-5,-2.85712 0,-5.71318 0,-8.57031 10e-6,-2.85714 0,-5.71513 0,-8.57226 v -8.57032 -8.57226 -8.57031 V 400 391.42773 388.28516 A 127.13924,89.569267 0 0 0 803.57227,353.28711 Z" />
    <ellipse
       id="path3742-7-0-7"
       cx="447.14285"
       cy="482.85715"
       rx="150.71068"
       ry="48.85498"
       style="fill:#1da0d1;fill-opacity:1;stroke-width:1.56662774" />
    <path
       id="path4686"
       style="fill:#008000;fill-opacity:1;stroke-width:1.42857146"
       d="m 2.3574219,466.54492 c -1.75955562,-0.0158 -1.81445315,8.73656 -1.81445315,67.92383 v 69.45898 H 454.11523 902.14258 V 603.57227 599.28516 595 v -4.28516 -4.28711 c 0,-1.42858 -2e-5,-2.85656 0,-4.28515 0,-1.42884 -4e-5,-2.85826 0,-4.28711 1.3e-4,-1.42776 9.9e-4,-2.85544 0,-4.2832 -3.4e-4,-1.4111 0.004,-2.82133 0.002,-4.23243 -0.009,-1.48006 -0.0327,-2.96021 0.0332,-4.43945 0.0379,-0.79986 -0.13771,-1.55629 -0.15039,-2.35742 -0.0474,-2.99742 -0.0136,-3.03554 0.76563,-4.76563 0.0287,-0.28377 0.45144,-1.23856 0.77734,-2.00781 v -2.91211 -4.28515 c 2e-5,-1.42822 2.1e-4,-2.85694 0,-4.28516 -1.3e-4,-1.42603 0.002,-2.85327 0.002,-4.2793 -10e-4,-1.4513 -0.009,-2.90223 0.004,-4.35351 0.01,-1.5799 -0.0628,-3.15868 -0.0234,-4.73828 0.0392,-0.60019 -0.0265,-1.22103 0.14063,-1.79883 0.029,-0.10029 0.017,0.21046 0.0391,0.3125 0.1404,0.65016 0.19204,1.32995 0.44922,1.94336 0.07,0.16706 0.15964,0.32441 0.25195,0.48047 -0.25236,-1.03014 -0.50759,-2.05966 -0.75976,-3.08985 -0.0521,-0.0959 -0.11294,-0.18646 -0.16016,-0.28515 -0.31848,-0.66569 -0.3263,-1.4388 -0.46875,-2.16407 l -0.9043,-2.03711 c 0.001,-1.39997 0.0111,-2.80124 -0.004,-4.20117 -0.009,-1.25001 -0.0307,-2.50887 0.0703,-3.7539 0.0591,-0.33458 0.002,0.034 -0.082,-0.81836 -0.0614,-0.62129 -0.16734,-1.24094 -0.16211,-1.86524 0.015,-1.79302 0.28458,-3.53301 0.89258,-5.18945 v -4.87695 c 0,-1.4178 0.12225,-2.71297 0.32617,-3.91211 -0.84569,0.66784 -1.68978,1.33173 -2.70703,2.18164 -15.51337,12.96104 -37.22291,22.56333 -63.07031,27.89453 -20.95238,4.32157 -56.61872,3.39322 -77.57422,-2.01953 -21.21977,-5.48099 -43.69659,-17.22161 -57.31055,-29.93555 l -10.8418,-10.125 -6.89648,3.87695 c -9.44579,5.30973 -24.08941,10.67472 -35.95117,13.16992 -12.36187,2.60042 -40.2732,2.65439 -52.46094,0.10157 l -9.17383,-1.92188 -10.11133,5.43164 c -61.81993,33.20982 -211.5141,31.43475 -265.40429,-3.14648 -3.76371,-2.41517 -8.38199,-6.21724 -10.26172,-8.45117 l -3.41602,-4.0625 -7.60351,2.88867 c -10.11624,3.84387 -38.40889,10.49979 -56.99805,13.4082 -20.47043,3.20274 -76.09139,4.43502 -99.64062,2.20899 -22.8799,-2.16278 -55.517621,-8.60877 -73.216801,-14.46289 C 37.462685,489.06332 23.512326,481.82783 3.2207031,466.96875 2.8948906,466.73016 2.6087869,466.54718 2.3574219,466.54492 Z m 900.6874981,59.76953 0.0625,0.13867 c -0.0352,-0.1419 -0.0701,-0.2839 -0.10547,-0.42578 -0.0183,-0.0733 0.0178,0.15066 0.0332,0.22461 0.004,0.0205 0.006,0.042 0.01,0.0625 z m 0.0625,0.13867 c 0.19103,0.76963 0.37787,1.54033 0.56641,2.31055 0.37858,0.6962 0.86569,1.33014 1.33594,1.97461 z" />
    <path
       id="path4688"
       style="fill:#29de4f;fill-opacity:1;stroke-width:1.42857146"
       d="m 205.54297,400.77539 -54.47852,0.80469 -54.478512,0.80469 -14.806641,5.64453 c -8.14399,3.10439 -27.020647,10.44562 -41.949219,16.31445 -14.928571,5.86883 -32.2865512,12.0704 -38.5722655,13.78125 -0.27581248,0.0751 -0.4779958,0.13231 -0.75195312,0.20703 v 2.56836 3.03125 3.0293 3.03125 3.03125 3.02929 l -0.51953126,1.63477 c -0.08417937,0.16836 -0.1869943,0.32992 -0.25390624,0.50586 -0.0218208,0.0574 0.0905549,-0.15465 0.140625,-0.11914 0.05349255,0.0379 0.03499084,0.12659 0.04492187,0.1914 0.02569352,0.16771 0.04145516,0.33556 0.0625,0.50391 0.13672419,1.46212 0.06371672,2.4667 -0.43554687,3.71485 2.05216252,2.65395 3.07197952,4.61546 2.46875002,4.98828 -0.97542,0.60284 -1.47070315,23.73949 -1.47070315,68.68164 v 67.77343 H 454.11523 902.14258 V 603.57227 599.28516 595 v -4.28516 -4.28711 c 0,-1.42858 -2e-5,-2.85656 0,-4.28515 0,-1.42884 -4e-5,-2.85826 0,-4.28711 1.3e-4,-1.42776 9.9e-4,-2.85544 0,-4.2832 -3.4e-4,-1.4111 0.004,-2.82133 0.002,-4.23243 -0.009,-1.48006 -0.0327,-2.96021 0.0332,-4.43945 0.0379,-0.79986 -0.13771,-1.55629 -0.15039,-2.35742 -0.0474,-2.99742 -0.0136,-3.03554 0.76563,-4.76563 0.0287,-0.28377 0.45144,-1.23856 0.77734,-2.00781 v -2.91211 -4.28515 c 2e-5,-1.42822 2.1e-4,-2.85694 0,-4.28516 -1.3e-4,-1.42603 0.002,-2.85327 0.002,-4.2793 -10e-4,-1.4513 -0.009,-2.90223 0.004,-4.35351 0.01,-1.5799 -0.0628,-3.15868 -0.0234,-4.73828 0.0392,-0.60019 -0.0265,-1.22103 0.14063,-1.79883 0.029,-0.10029 0.017,0.21046 0.0391,0.3125 0.1404,0.65016 0.19204,1.32995 0.44922,1.94336 0.07,0.16706 0.15964,0.32441 0.25195,0.48047 -0.25236,-1.03014 -0.50759,-2.05966 -0.75976,-3.08985 -0.0521,-0.0959 -0.11294,-0.18646 -0.16016,-0.28515 -0.31848,-0.66569 -0.3263,-1.4388 -0.46875,-2.16407 l -0.9043,-2.03711 c 0.001,-1.39997 0.0111,-2.80124 -0.004,-4.20117 -0.009,-1.25001 -0.0307,-2.50887 0.0703,-3.7539 0.0591,-0.33458 0.002,0.034 -0.082,-0.81836 -0.0614,-0.62129 -0.16734,-1.24094 -0.16211,-1.86524 0.015,-1.79302 0.28458,-3.53301 0.89258,-5.18945 v -4.87695 c 0,-2.22898 0.27791,-4.18256 0.75781,-5.8711 -1.3696,-3.63205 -4.07706,-9.50373 -3.25586,-12.70117 0.27805,-1.0826 0.71506,-2.1176 1.22461,-3.12109 -0.15191,-0.20703 0.0307,-0.68409 0.004,-0.98829 -0.0503,-0.57004 -0.22274,-1.14741 -0.13477,-1.71289 0.65588,-4.21637 1.15953,-5.59911 2.83399,-7.40039 -0.002,-1.06773 1.3e-4,-2.13546 0,-3.20312 0.002,-2.85807 10e-4,-5.71615 0,-8.57422 -2e-4,-2.85746 0,-5.71481 0,-8.57227 -2e-5,-2.85712 0,-5.71318 0,-8.57031 10e-6,-2.85714 0,-5.71513 0,-8.57226 v -8.57032 -0.59375 l -3.74219,-0.73437 c -22.89797,-4.49046 -25.53028,-4.69127 -92.14258,-7.00195 l -68.57031,-2.37891 -29.28711,5.06445 c -16.10714,2.78537 -38.28516,6.47946 -49.28516,8.20899 -21.57925,3.3929 -26.85336,5.19875 -72.33593,24.76367 l -25.19336,10.83594 -79.3711,10.03125 -79.37109,10.02929 -14.79883,-6.32031 c -8.1393,-3.4765 -33.40727,-14.96959 -56.15039,-25.54102 C 293.03128,433.01803 261.977,420.32825 224.83008,407.45703 Z m 697.50195,125.53906 0.0625,0.13867 c -0.0352,-0.1419 -0.0701,-0.2839 -0.10547,-0.42578 -0.0183,-0.0733 0.0178,0.15066 0.0332,0.22461 0.004,0.0205 0.006,0.042 0.01,0.0625 z m 0.0625,0.13867 c 0.19103,0.76963 0.37787,1.54033 0.56641,2.31055 0.37858,0.6962 0.86569,1.33014 1.33594,1.97461 z M -5.3007812,456.08789 c 0.00509,0.009 0.043557,0.0378 0.1230468,0.0918 0.086208,0.0585 0.181139,0.10347 0.2734375,0.15234 0.00302,-0.011 0.00666,-0.0222 0.00977,-0.0332 -0.1246534,-0.0647 -0.4140891,-0.22439 -0.40625,-0.21094 z M 691.52344,486.78516 c 0.83967,0 2.32851,0.964 3.30664,2.14257 2.22457,2.68048 1.52297,2.6654 -2.06055,-0.0449 -1.52518,-1.15358 -2.08577,-2.09765 -1.24609,-2.09765 z" />
    <path
       style="fill:#008000;fill-opacity:1;stroke-width:0.12626907"
       d="m 694.91053,490.35211 c -0.4643,-0.29438 -1.37084,-1.01821 -2.01452,-1.60852 -0.64368,-0.5903 -1.21448,-1.05944 -1.26843,-1.04251 -0.15135,0.0475 -0.51393,-0.57092 -0.42198,-0.7197 0.14109,-0.2283 0.75014,-0.14401 1.4387,0.19912 0.51885,0.25855 0.95928,0.6747 2.01353,1.90251 0.74218,0.86436 1.36836,1.62457 1.39151,1.68936 0.0886,0.24801 -0.32627,0.0949 -1.13881,-0.42026 z"
       id="path4692"
       inkscape:connector-curvature="0" />
    <path
       style="fill:#29de4f;fill-opacity:1;stroke-width:0.12626907"
       d="m 616.14207,527.12939 v -76.89786 h 79.67578 79.67578 v 76.89786 76.89786 h -79.67578 -79.67578 z"
       id="path4694"
       inkscape:connector-curvature="0" />
    <rect
       style="fill:#29de4f;fill-opacity:1"
       id="rect5317"
       width="11.490485"
       height="23.486046"
       x="-8.4600277"
       y="459.84134" />
    <path
       id="path4706"
       style="fill:#29b14f;fill-opacity:1;stroke-width:1.42857146"
       d="m 154.68359,442.11523 -46.42382,10.60352 C 79.817702,459.21569 49.938261,467.1159 31.121094,473.11523 L 0.40625,482.9082 0.03515625,544.57227 -0.33789062,606.23828 H 453.96289 902.14258 V 603.57227 599.28516 595 v -4.28516 -4.28711 c 0,-1.42858 -2e-5,-2.85656 0,-4.28515 0,-1.42884 -4e-5,-2.85826 0,-4.28711 1.3e-4,-1.42776 9.9e-4,-2.85544 0,-4.2832 -3.4e-4,-1.4111 0.004,-2.82133 0.002,-4.23243 -0.009,-1.48006 -0.0327,-2.96021 0.0332,-4.43945 0.0379,-0.79986 -0.13771,-1.55629 -0.15039,-2.35742 -0.0474,-2.99742 -0.0136,-3.03554 0.76563,-4.76563 0.0287,-0.28377 0.45144,-1.23856 0.77734,-2.00781 v -2.91211 -4.28515 c 2e-5,-1.42822 2.1e-4,-2.85694 0,-4.28516 -1.3e-4,-1.42603 0.002,-2.85327 0.002,-4.2793 -10e-4,-1.4513 -0.009,-2.90223 0.004,-4.35351 0.01,-1.5799 -0.0628,-3.15868 -0.0234,-4.73828 0.0392,-0.60019 -0.0265,-1.22103 0.14063,-1.79883 0.029,-0.10029 0.017,0.21046 0.0391,0.3125 0.1404,0.65016 0.19204,1.32995 0.44922,1.94336 0.07,0.16706 0.15964,0.32441 0.25195,0.48047 -0.25236,-1.03014 -0.50759,-2.05966 -0.75976,-3.08985 -0.0521,-0.0959 -0.11294,-0.18646 -0.16016,-0.28515 -0.31848,-0.66569 -0.3263,-1.4388 -0.46875,-2.16407 l -0.9043,-2.03711 c 0.001,-1.39997 0.0111,-2.80124 -0.004,-4.20117 -0.009,-1.25001 -0.0307,-2.50887 0.0703,-3.7539 0.0591,-0.33458 0.002,0.034 -0.082,-0.81836 -0.0614,-0.62129 -0.16734,-1.24094 -0.16211,-1.86524 0.015,-1.79302 0.28458,-3.53301 0.89258,-5.18945 v -4.87695 c 0,-2.22898 0.27791,-4.18256 0.75781,-5.8711 -1.3696,-3.63205 -4.07706,-9.50373 -3.25586,-12.70117 0.27805,-1.0826 0.71506,-2.1176 1.22461,-3.12109 -0.15191,-0.20703 0.0307,-0.68408 0.004,-0.98829 -0.0503,-0.57004 -0.22274,-1.14741 -0.13477,-1.71289 0.65588,-4.21637 1.15953,-5.59911 2.83399,-7.40039 -0.002,-1.06773 1.3e-4,-2.13546 0,-3.20312 8.9e-4,-1.27669 3e-5,-2.55339 0,-3.83008 l -16.93555,-9.65039 -54.90039,-2.08594 -54.90039,-2.08593 -55,9.19335 -55,9.19336 -40,17.14649 -40,17.14648 -67.85547,5.03321 -67.85742,5.0332 -37.48828,-2.95703 -37.48633,-2.95899 -58.46094,-27.0625 -58.45898,-27.0625 -52.62891,-5.75586 z m 748.36133,84.19922 0.0625,0.13867 c -0.0352,-0.1419 -0.0701,-0.2839 -0.10547,-0.42578 -0.0183,-0.0733 0.0178,0.15066 0.0332,0.22461 0.004,0.0205 0.006,0.042 0.01,0.0625 z m 0.0625,0.13867 c 0.19103,0.76963 0.37787,1.54033 0.56641,2.31055 0.37858,0.6962 0.86569,1.33014 1.33594,1.97461 z" />
    <rect
       style="fill:#8c5a31;fill-opacity:1;stroke-width:0.93587309"
       id="rect4724-5"
       width="26.985682"
       height="73.720024"
       x="329.88834"
       y="471.38705" />
    <rect
       style="fill:#76461d;fill-opacity:1"
       id="rect4726-9"
       width="16.162436"
       height="74.225212"
       x="329.88834"
       y="471.38705" />
    <rect
       style="fill:#8c5a31;fill-opacity:1;stroke-width:0.93587309"
       id="rect4724-6"
       width="26.985682"
       height="73.720024"
       x="162.12949"
       y="458.33658" />
    <rect
       style="fill:#76461d;fill-opacity:1"
       id="rect4726-6"
       width="16.162436"
       height="74.225212"
       x="162.12949"
       y="458.33658" />
    <rect
       style="fill:#8c5a31;fill-opacity:1;stroke-width:1.07605469"
       id="rect4724-5-8"
       width="26.985682"
       height="97.458611"
       x="744.68396"
       y="437.60464" />
    <rect
       style="fill:#76461d;fill-opacity:1;stroke-width:1.14586747"
       id="rect4726-9-1"
       width="16.162436"
       height="97.458611"
       x="744.68396"
       y="437.60464" />
    <path
       id="path4714"
       style="fill:#29904f;fill-opacity:1;stroke-width:1.42857146"
       d="m 235.92383,505.29297 -57.75781,3.96484 -57.75977,3.96485 -60.351562,11.15039 -60.35351612,11.15039 -0.003906,33.09765 c -0.002322,18.2036 -0.3941741,34.1146 -0.87109372,35.35743 -0.7895881,2.05764 39.8322111,2.25976 454.2851581,2.25976 H 902.14258 V 603.57227 599.28516 595 v -4.28516 -4.28711 c 0,-1.42858 -2e-5,-2.85656 0,-4.28515 0,-1.42884 -4e-5,-2.85826 0,-4.28711 1.3e-4,-1.42776 9.9e-4,-2.85544 0,-4.2832 -3.4e-4,-1.4111 0.004,-2.82133 0.002,-4.23243 -0.009,-1.48006 -0.0327,-2.96021 0.0332,-4.43945 0.0379,-0.79986 -0.13771,-1.55629 -0.15039,-2.35742 -0.0474,-2.99742 -0.0136,-3.03554 0.76563,-4.76563 0.0287,-0.28377 0.45144,-1.23856 0.77734,-2.00781 v -2.91211 -4.28515 c 2e-5,-1.42822 2.1e-4,-2.85694 0,-4.28516 -1.3e-4,-1.42603 0.002,-2.85327 0.002,-4.2793 -10e-4,-1.4513 -0.009,-2.90223 0.004,-4.35351 0.01,-1.5799 -0.0628,-3.15868 -0.0234,-4.73828 0.0392,-0.60019 -0.0265,-1.22103 0.14063,-1.79883 0.029,-0.10029 0.017,0.21046 0.0391,0.3125 0.1404,0.65016 0.19204,1.32995 0.44922,1.94336 0.07,0.16706 0.15964,0.32441 0.25195,0.48047 -0.25236,-1.03014 -0.50759,-2.05966 -0.75976,-3.08985 -0.0521,-0.0959 -0.11294,-0.18646 -0.16016,-0.28515 -0.31848,-0.66569 -0.3263,-1.4388 -0.46875,-2.16407 l -0.9043,-2.03711 c 3.5e-4,-0.48813 -0.003,-0.9765 -0.002,-1.46484 l -28.11133,-5.26367 -34.95117,-6.54688 -51.47656,0.58789 -51.47852,0.58985 -40.71484,8.41601 c -22.39285,4.62866 -61.60687,13.63746 -87.14258,20.01953 l -46.42773,11.60352 -47.85742,1.41211 -47.85743,1.41016 -70.71484,-11.46094 -70.71289,-11.46094 -44.38477,-13.41406 z m 667.12109,21.02148 0.0625,0.13867 c -0.0352,-0.1419 -0.0701,-0.2839 -0.10547,-0.42578 -0.0183,-0.0733 0.0178,0.15066 0.0332,0.22461 0.004,0.0205 0.006,0.042 0.01,0.0625 z m 0.0625,0.13867 c 0.19103,0.76963 0.37787,1.54033 0.56641,2.31055 0.37858,0.6962 0.86569,1.33014 1.33594,1.97461 z" />
    <rect
       style="fill:#8c5a31;fill-opacity:1;stroke-width:0.93587309"
       id="rect4724"
       width="26.985682"
       height="73.720024"
       x="252.79068"
       y="504.56158" />
    <rect
       style="fill:#76461d;fill-opacity:1"
       id="rect4726"
       width="16.162436"
       height="74.225212"
       x="252.79068"
       y="504.56158" />
    <path
       id="path4718"
       style="fill:#29764f;fill-opacity:1;stroke-width:1.42857146"
       d="m 847.54883,553.7207 -31.42774,6.26758 -31.42773,6.26758 -90.71484,4.2207 c -93.11751,4.33233 -239.52515,10.72739 -281.42969,12.29297 -21.03436,0.78586 -32.48877,0.10206 -106.42774,-6.35742 -72.60534,-6.34296 -91.51844,-7.4915 -152.85742,-9.27734 L 83.263672,565.0957 45.40625,569.24414 c -20.821428,2.2816 -39.9464286,4.49702 -42.5,4.92188 l -4.6425781,0.77148 v 14.69727 c 0,8.08344 0.4300505,15.12732 0.9550781,15.65234 0.52502771,0.52504 205.43602,0.79335 455.35742,0.5957 L 902.14258,605.5293 V 603.57227 599.28516 595 v -4.28516 -4.28711 c 0,-1.42858 -2e-5,-2.85656 0,-4.28515 0,-1.42884 -4e-5,-2.85826 0,-4.28711 1.3e-4,-1.42776 9.9e-4,-2.85544 0,-4.2832 -3.4e-4,-1.4111 0.004,-2.82133 0.002,-4.23243 -0.009,-1.48006 -0.0327,-2.96021 0.0332,-4.43945 0.0379,-0.79986 -0.13771,-1.55629 -0.15039,-2.35742 -9.5e-4,-0.0605 8.9e-4,-0.0844 0,-0.14258 -5.73425,-0.87834 -14.42977,-2.24471 -24.47851,-3.85937 z" />
    <rect
       style="fill:#005f1d;fill-opacity:1;stroke-width:1.17414606"
       id="rect4779"
       width="50.507626"
       height="111.11678"
       x="150.00766"
       y="355.03799"
       ry="18.15274" />
    <rect
       style="fill:#005f1d;fill-opacity:1;stroke-width:1.22528195"
       id="rect4779-9"
       width="61.114227"
       height="100.0051"
       x="235.36554"
       y="437.87048"
       ry="16.337467" />
    <rect
       style="fill:#005f1d;fill-opacity:1;stroke-width:1.24823475"
       id="rect4779-90"
       width="56.063465"
       height="113.13708"
       x="314.66251"
       y="378.77661"
       ry="18.48279" />
    <rect
       style="fill:#005f1d;fill-opacity:1;stroke-width:1.27603853"
       id="rect4779-90-7"
       width="58.588848"
       height="113.13708"
       x="728.7381"
       y="334.064"
       ry="18.48279" />
    <rect
       style="fill:#29b14f;fill-opacity:1"
       id="rect5315"
       width="35.357143"
       height="49.285713"
       x="891.60712"
       y="468.39285" />
    <rect
       style="fill:#005f1d;fill-opacity:1;stroke-width:0.66595548"
       id="rect5286"
       width="109.02013"
       height="605.43164"
       x="900.17865"
       y="-0.086216517"
       ry="0" />
    <rect
       style="fill:#29b14f;fill-opacity:1"
       id="rect5319"
       width="16.414978"
       height="32.70369"
       x="-3.4092648"
       y="482.69604" />
    <rect
       style="fill:#005f1d;fill-opacity:1;stroke-width:0.66595548"
       id="rect5286-4"
       width="109.02013"
       height="605.43164"
       x="-108.77599"
       y="-0.26478794"
       ry="0" />
  </g>
</svg>
